<svg xmlns="http://www.w3.org/2000/svg" viewBox="0 0 512 512">
  <defs>
    <linearGradient id="night" x1="68" y1="34" x2="438" y2="478" gradientUnits="userSpaceOnUse">
      <stop offset="0" stop-color="#26333a"/>
      <stop offset="0.48" stop-color="#101820"/>
      <stop offset="1" stop-color="#05090d"/>
    </linearGradient>
    <linearGradient id="snow" x1="110" y1="110" x2="430" y2="394" gradientUnits="userSpaceOnUse">
      <stop offset="0" stop-color="#ffffff"/>
      <stop offset="0.52" stop-color="#dbe9ed"/>
      <stop offset="1" stop-color="#8aa1aa"/>
    </linearGradient>
    <linearGradient id="ice" x1="120" y1="128" x2="386" y2="366" gradientUnits="userSpaceOnUse">
      <stop offset="0" stop-color="#f8fdff"/>
      <stop offset="0.44" stop-color="#bdebf6"/>
      <stop offset="1" stop-color="#5d7a86"/>
    </linearGradient>
    <pattern id="cutlines" width="52" height="52" patternUnits="userSpaceOnUse">
      <path d="M52 0 0 52M16 0 0 16M52 36 36 52" fill="none" stroke="#d9edf2" stroke-opacity=".18" stroke-width="5"/>
    </pattern>
  </defs>
  <rect width="512" height="512" rx="72" fill="url(#night)"/>
  <rect width="512" height="512" rx="72" fill="url(#cutlines)"/>
  <path d="M44 360 154 182l58 86 76-148 180 240v84H44z" fill="url(#snow)"/>
  <path d="M154 182 212 268 177 256 144 320 84 360zM288 120l78 104-55-18-57 116-42-54z" fill="#ffffff" opacity=".88"/>
  <path d="M62 365h388" stroke="#e54b3c" stroke-width="12" stroke-linecap="square"/>
  <g fill="none" stroke="url(#ice)" stroke-width="32" stroke-linecap="square" stroke-linejoin="miter">
    <path d="M192 214c-22-35-86-28-96 20-11 54 36 92 88 66"/>
    <path d="M304 214c-22-35-86-28-96 20-11 54 36 92 88 66"/>
    <path d="M416 214c-22-35-86-28-96 20-11 54 36 92 88 66"/>
  </g>
  <g fill="none" stroke="#101820" stroke-width="9" stroke-linecap="square" opacity=".55">
    <path d="M192 214c-22-35-86-28-96 20-11 54 36 92 88 66"/>
    <path d="M304 214c-22-35-86-28-96 20-11 54 36 92 88 66"/>
    <path d="M416 214c-22-35-86-28-96 20-11 54 36 92 88 66"/>
  </g>
</svg>
