<svg xmlns="http://www.w3.org/2000/svg" viewBox="0 0 512 512">
  <defs>
    <linearGradient id="paper" x1="72" y1="42" x2="430" y2="470" gradientUnits="userSpaceOnUse">
      <stop offset="0" stop-color="#fffefa"/>
      <stop offset="0.55" stop-color="#fbf7ef"/>
      <stop offset="1" stop-color="#e8f3ff"/>
    </linearGradient>
    <linearGradient id="blue" x1="92" y1="92" x2="418" y2="420" gradientUnits="userSpaceOnUse">
      <stop offset="0" stop-color="#2a78cb"/>
      <stop offset="1" stop-color="#124f98"/>
    </linearGradient>
    <linearGradient id="fold" x1="180" y1="88" x2="332" y2="410" gradientUnits="userSpaceOnUse">
      <stop offset="0" stop-color="#ffffff"/>
      <stop offset="1" stop-color="#dbeeff"/>
    </linearGradient>
    <pattern id="grain" width="64" height="64" patternUnits="userSpaceOnUse">
      <path d="M64 0 0 64M20 0 0 20M64 44 44 64" fill="none" stroke="#1d67bd" stroke-opacity=".08" stroke-width="3"/>
    </pattern>
    <filter id="softShadow" x="-15%" y="-15%" width="130%" height="130%">
      <feDropShadow dx="10" dy="14" stdDeviation="8" flood-color="#1d67bd" flood-opacity=".15"/>
      <feDropShadow dx="0" dy="2" stdDeviation="2" flood-color="#917548" flood-opacity=".12"/>
    </filter>
    <clipPath id="clip">
      <rect x="36" y="36" width="440" height="440" rx="84"/>
    </clipPath>
    <pattern id="grid" width="52" height="52" patternUnits="userSpaceOnUse">
      <path d="M52 0H0v52" fill="none" stroke="#1d67bd" stroke-opacity=".11" stroke-width="3"/>
    </pattern>
  </defs>
  <rect x="24" y="24" width="464" height="464" rx="92" fill="#1d67bd"/>
  <rect x="36" y="36" width="440" height="440" rx="84" fill="url(#paper)"/>
  <g clip-path="url(#clip)">
    <rect x="36" y="36" width="440" height="440" fill="url(#grid)"/>
    <rect x="36" y="36" width="440" height="440" fill="url(#grain)"/>
    <path d="M92 394h328" stroke="#1d67bd" stroke-width="10" stroke-linecap="square" opacity=".9"/>
    <path d="M338 74 430 166v256H112V74z" fill="url(#fold)" filter="url(#softShadow)"/>
    <path d="M338 74v92h92" fill="#cfe7ff"/>
    <path d="M338 74v92h92" fill="none" stroke="#1d67bd" stroke-width="8" stroke-linejoin="miter"/>
    <path d="M112 74h226l92 92v256H112z" fill="none" stroke="#1d67bd" stroke-width="10" stroke-linejoin="miter"/>
  </g>
  <g fill="none" stroke="url(#blue)" stroke-width="28" stroke-linecap="square" stroke-linejoin="miter">
    <path d="M194 218c-24-30-78-22-88 20-12 50 36 84 82 58"/>
    <path d="M304 218c-24-30-78-22-88 20-12 50 36 84 82 58"/>
    <path d="M414 218c-24-30-78-22-88 20-12 50 36 84 82 58"/>
  </g>
  <path d="M138 340h236" stroke="#e7d8b5" stroke-width="8" stroke-linecap="square"/>
</svg>
