<svg xmlns="http://www.w3.org/2000/svg" viewBox="0 0 512 512">
  <defs>
    <linearGradient id="ink" x1="70" y1="34" x2="440" y2="478" gradientUnits="userSpaceOnUse">
      <stop offset="0" stop-color="#27302f"/>
      <stop offset="0.5" stop-color="#111715"/>
      <stop offset="1" stop-color="#070a09"/>
    </linearGradient>
    <linearGradient id="snow" x1="108" y1="112" x2="422" y2="392" gradientUnits="userSpaceOnUse">
      <stop offset="0" stop-color="#ffffff"/>
      <stop offset="0.58" stop-color="#edf2f1"/>
      <stop offset="1" stop-color="#aebbbb"/>
    </linearGradient>
    <linearGradient id="ice" x1="112" y1="126" x2="398" y2="354" gradientUnits="userSpaceOnUse">
      <stop offset="0" stop-color="#ffffff"/>
      <stop offset="0.5" stop-color="#dae9ea"/>
      <stop offset="1" stop-color="#748889"/>
    </linearGradient>
    <linearGradient id="gold" x1="64" y1="350" x2="448" y2="350" gradientUnits="userSpaceOnUse">
      <stop offset="0" stop-color="#8f7a46"/>
      <stop offset="0.5" stop-color="#d9c487"/>
      <stop offset="1" stop-color="#8f7a46"/>
    </linearGradient>
    <pattern id="grain" width="64" height="64" patternUnits="userSpaceOnUse">
      <path d="M64 0 0 64M20 0 0 20M64 44 44 64" fill="none" stroke="#f7f8f5" stroke-opacity=".11" stroke-width="3"/>
    </pattern>
  </defs>
  <rect width="512" height="512" rx="76" fill="url(#ink)"/>
  <rect width="512" height="512" rx="76" fill="url(#grain)"/>
  <path d="M52 356 154 190l54 78 82-148 170 236v82H52z" fill="url(#snow)"/>
  <path d="M154 190 208 268 178 258 132 336 82 356zM290 120l70 98-44-12-66 122-42-60z" fill="#ffffff" opacity=".9"/>
  <path d="M70 357h372" stroke="url(#gold)" stroke-width="7" stroke-linecap="square"/>
  <g fill="none" stroke="url(#ice)" stroke-width="26" stroke-linecap="square" stroke-linejoin="miter">
    <path d="M190 216c-22-32-82-26-92 20-10 52 34 88 84 64"/>
    <path d="M304 216c-22-32-82-26-92 20-10 52 34 88 84 64"/>
    <path d="M418 216c-22-32-82-26-92 20-10 52 34 88 84 64"/>
  </g>
  <g fill="none" stroke="#111715" stroke-width="7" stroke-linecap="square" opacity=".45">
    <path d="M190 216c-22-32-82-26-92 20-10 52 34 88 84 64"/>
    <path d="M304 216c-22-32-82-26-92 20-10 52 34 88 84 64"/>
    <path d="M418 216c-22-32-82-26-92 20-10 52 34 88 84 64"/>
  </g>
</svg>
